<?xml version="1.0" standalone="no"?>
<!DOCTYPE svg PUBLIC "-//W3C//DTD SVG 20010904//EN"
 "http://www.w3.org/TR/2001/REC-SVG-20010904/DTD/svg10.dtd">
<svg version="1.0" xmlns="http://www.w3.org/2000/svg"
 width="184.000000pt" height="184.000000pt" viewBox="0 0 184.000000 184.000000"
 preserveAspectRatio="xMidYMid meet">
<metadata>
Created by potrace 1.15, written by Peter Selinger 2001-2017
</metadata>
<g transform="translate(0.000000,184.000000) scale(0.100000,-0.100000)"
fill="#000000" stroke="none">
<path d="M783 1690 c-73 -14 -184 -54 -246 -89 -120 -69 -243 -193 -303 -306
-15 -27 -32 -60 -39 -72 -7 -13 -16 -19 -20 -15 -5 4 -5 2 -2 -4 4 -7 -2 -54
-13 -105 -58 -273 20 -539 212 -726 73 -72 127 -112 194 -146 216 -108 464
-112 683 -11 432 199 583 750 313 1140 -107 154 -232 247 -417 311 -80 27
-270 39 -362 23z m165 -402 l-3 -63 82 -3 c50 -2 92 2 105 9 24 13 22 14 67
-59 12 -21 36 -47 53 -56 16 -10 27 -20 25 -23 -7 -6 -85 34 -126 65 -30 22
-48 27 -123 30 -93 5 -125 -11 -42 -21 53 -6 95 -33 108 -69 21 -58 -27 -128
-89 -128 -19 0 -35 -3 -34 -7 1 -17 131 -120 188 -150 51 -27 57 -33 40 -38
-12 -4 -41 -1 -65 5 -36 10 -59 29 -119 94 l-75 81 0 -126 c0 -143 3 -150 82
-174 l43 -13 -30 -12 c-29 -11 -64 -10 -97 4 -13 6 -20 -3 -34 -48 -23 -73
-66 -126 -103 -126 -36 0 -66 22 -58 44 11 28 38 32 58 8 9 -12 19 -22 22 -22
3 0 13 21 22 48 14 36 19 90 22 232 l5 185 -57 -62 c-31 -35 -70 -72 -87 -84
l-30 -22 -59 19 c-32 11 -59 22 -59 26 0 5 20 8 45 8 26 0 60 7 78 17 37 19
137 103 137 115 0 4 -16 8 -36 8 -69 0 -116 80 -84 141 14 25 54 45 109 54 37
6 41 9 26 17 -29 17 -135 2 -185 -25 -80 -44 -136 -45 -68 -2 17 11 39 35 47
52 11 23 20 31 31 26 8 -4 55 -9 104 -11 l89 -3 -7 34 c-6 31 -4 35 12 30 14
-3 26 5 41 26 12 17 25 31 28 31 3 0 3 -28 1 -62z"/>
</g>
</svg>
