<svg version="1.0" xmlns="http://www.w3.org/2000/svg" width="245.333" height="245.333" viewBox="0 0 184 184"><path d="M78.3 15c-7.3 1.4-18.4 5.4-24.6 8.9-12 6.9-24.3 19.3-30.3 30.6-1.5 2.7-3.2 6-3.9 7.2-.7 1.3-1.6 1.9-2 1.5-.5-.4-.5-.2-.2.4.4.7-.2 5.4-1.3 10.5-5.8 27.3 2 53.9 21.2 72.6 7.3 7.2 12.7 11.2 19.4 14.6 21.6 10.8 46.4 11.2 68.3 1.1 43.2-19.9 58.3-75 31.3-114C145.5 33 133 23.7 114.5 17.3c-8-2.7-27-3.9-36.2-2.3zm16.5 40.2l-.3 6.3 8.2.3c5 .2 9.2-.2 10.5-.9 2.4-1.3 2.2-1.4 6.7 5.9 1.2 2.1 3.6 4.7 5.3 5.6 1.6 1 2.7 2 2.5 2.3-.7.6-8.5-3.4-12.6-6.5-3-2.2-4.8-2.7-12.3-3-9.3-.5-12.5 1.1-4.2 2.1 5.3.6 9.5 3.3 10.8 6.9 2.1 5.8-2.7 12.8-8.9 12.8-1.9 0-3.5.3-3.4.7.1 1.7 13.1 12 18.8 15 5.1 2.7 5.7 3.3 4 3.8-1.2.4-4.1.1-6.5-.5-3.6-1-5.9-2.9-11.9-9.4L94 88.5v12.6c0 14.3.3 15 8.2 17.4l4.3 1.3-3 1.2c-2.9 1.1-6.4 1-9.7-.4-1.3-.6-2 .3-3.4 4.8-2.3 7.3-6.6 12.6-10.3 12.6-3.6 0-6.6-2.2-5.8-4.4 1.1-2.8 3.8-3.2 5.8-.8.9 1.2 1.9 2.2 2.2 2.2.3 0 1.3-2.1 2.2-4.8 1.4-3.6 1.9-9 2.2-23.2l.5-18.5-5.7 6.2c-3.1 3.5-7 7.2-8.7 8.4l-3 2.2-5.9-1.9c-3.2-1.1-5.9-2.2-5.9-2.6 0-.5 2-.8 4.5-.8 2.6 0 6-.7 7.8-1.7C74 96.4 84 88 84 86.8c0-.4-1.6-.8-3.6-.8-6.9 0-11.6-8-8.4-14.1 1.4-2.5 5.4-4.5 10.9-5.4 3.7-.6 4.1-.9 2.6-1.7-2.9-1.7-13.5-.2-18.5 2.5-8 4.4-13.6 4.5-6.8.2 1.7-1.1 3.9-3.5 4.7-5.2 1.1-2.3 2-3.1 3.1-2.6.8.4 5.5.9 10.4 1.1l8.9.3-.7-3.4c-.6-3.1-.4-3.5 1.2-3 1.4.3 2.6-.5 4.1-2.6 1.2-1.7 2.5-3.1 2.8-3.1.3 0 .3 2.8.1 6.2z"/></svg>